<?xml version="1.0" encoding="utf-8"?>
<!-- Generator: Adobe Illustrator 21.1.0, SVG Export Plug-In . SVG Version: 6.00 Build 0)  -->
<svg version="1.1" id="图层_1" xmlns="http://www.w3.org/2000/svg" xmlns:xlink="http://www.w3.org/1999/xlink" x="0px" y="0px"
	 width="30px" height="30px" viewBox="0 0 30 30" style="enable-background:new 0 0 30 30;" xml:space="preserve">
<style type="text/css">
	.st0{fill:#54CED1;}
	.st1{fill:#FFFFFF;}
</style>
<g>
	<circle class="st0" cx="15" cy="15" r="11"/>
	<g>
		<path class="st1" d="M17.7,21.2c-0.1,0.3-0.1,0.5-0.2,0.8c0,0-0.1,0.1-0.1,0.1c-0.7,0.3-1.5,0.6-2.2,0.7c-0.7,0.2-1.4,0.1-2.1-0.2
			c-0.8-0.3-1.3-1.1-1.2-2c0-0.6,0.1-1.2,0.3-1.8c0.3-1.1,0.6-2.3,0.9-3.4c0.1-0.4,0.1-0.8,0.1-1.3c0-0.4-0.2-0.5-0.6-0.6
			c-0.5-0.1-1,0-1.5,0.2c-0.1,0-0.1,0-0.3,0.1c0.1-0.3,0.1-0.5,0.2-0.8c0-0.1,0.1-0.1,0.1-0.2c0.8-0.3,1.6-0.7,2.4-0.7
			c0.8-0.1,1.5,0,2.2,0.4c0.7,0.4,0.9,1.1,0.9,1.9c0,0.9-0.3,1.8-0.6,2.7c-0.3,1-0.5,1.9-0.7,2.9c-0.2,1,0.3,1.4,1.3,1.3
			C16.9,21.4,17.3,21.3,17.7,21.2z"/>
		<circle class="st1" cx="15.9" cy="8.6" r="2"/>
	</g>
</g>
</svg>
