<?xml version="1.0" encoding="utf-8"?>
<!-- Generator: Adobe Illustrator 21.1.0, SVG Export Plug-In . SVG Version: 6.00 Build 0)  -->
<svg version="1.1" id="图层_1" xmlns="http://www.w3.org/2000/svg" xmlns:xlink="http://www.w3.org/1999/xlink" x="0px" y="0px"
	 width="32px" height="32px" viewBox="0 0 32 32" style="enable-background:new 0 0 32 32;" xml:space="preserve">
<style type="text/css">
	.st0{fill:#A4ACB7;}
</style>
<path class="st0" d="M16,1.5C8,1.5,1.5,8,1.5,16c0,6.4,4.2,11.9,9.9,13.8c0.7,0.1,1-0.3,1-0.7c0-0.4,0-1.3,0-2.4
	c-4.1,0.9-4.9-1.9-4.9-1.9c-0.6-1.6-1.6-2.1-1.6-2.1c-1.4-0.9,0.1-0.9,0.1-0.9c1.4,0.1,2.3,1.5,2.3,1.5c1.3,2.2,3.4,1.5,4.3,1.2
	c0.1-0.9,0.5-1.5,0.9-1.9c-3.3-0.4-6.6-1.6-6.6-7.2c0-1.5,0.5-2.9,1.4-3.9C8,11,7.6,9.6,8.4,7.6c0,0,1.2-0.4,4,1.5
	c1.2-0.4,2.4-0.5,3.6-0.5s2.4,0.2,3.6,0.5c2.8-1.9,4-1.4,4-1.4c0.8,2,0.3,3.4,0.2,3.8c0.9,1,1.5,2.3,1.5,3.9c0,5.5-3.4,6.8-6.6,7.2
	c0.5,0.5,1,1.4,1,2.7c0,1.9,0,3.5,0,4c0,0.4,0.3,0.8,1,0.7c5.7-2,9.9-7.4,9.9-13.9C30.5,8,24,1.5,16,1.5z"/>
</svg>
