<?xml version="1.0" encoding="utf-8"?>
<!-- Generator: Adobe Illustrator 21.1.0, SVG Export Plug-In . SVG Version: 6.00 Build 0)  -->
<svg version="1.1" id="图层_1" xmlns="http://www.w3.org/2000/svg" xmlns:xlink="http://www.w3.org/1999/xlink" x="0px" y="0px"
	 width="30px" height="30px" viewBox="0 0 30 30" style="enable-background:new 0 0 30 30;" xml:space="preserve">
<style type="text/css">
	.st0{fill:#ED2B2B;}
	.st1{fill:#FFFFFF;}
</style>
<g>
	<path class="st0" d="M26.1,21.8L17,5.9c-0.9-1.5-3-1.5-3.9,0L3.9,21.8c-0.9,1.5,0.2,3.4,2,3.4h18.4C25.9,25.2,27,23.3,26.1,21.8z"
		/>
	<g>
		<polygon class="st1" points="16.3,18.2 13.7,18.2 13.5,15.5 13.5,11.1 16.5,11.1 16.5,15.5 		"/>
		<path class="st1" d="M15,22.2L15,22.2c-0.8,0-1.5-0.7-1.5-1.5v0c0-0.8,0.7-1.5,1.5-1.5h0c0.8,0,1.5,0.7,1.5,1.5v0
			C16.5,21.5,15.8,22.2,15,22.2z"/>
	</g>
</g>
</svg>
