<?xml version="1.0" encoding="utf-8"?>
<!-- Generator: Adobe Illustrator 21.1.0, SVG Export Plug-In . SVG Version: 6.00 Build 0)  -->
<svg version="1.1" id="图层_1" xmlns="http://www.w3.org/2000/svg" xmlns:xlink="http://www.w3.org/1999/xlink" x="0px" y="0px"
	 width="127.4px" height="24px" viewBox="0 0 127.4 24" style="enable-background:new 0 0 127.4 24;" xml:space="preserve">
<style type="text/css">
	.st0{fill:#FFFFFF;}
</style>
<g>
	<polygon class="st0" points="15.8,15.2 5.5,2.1 0,2.1 0,23.4 5.5,23.4 5.5,10.4 15.8,23.4 21.3,23.4 21.3,2.1 15.8,2.1 	"/>
	<path class="st0" d="M70.8,10.4c-1.2-1.3-2.7-1.9-4.5-1.9c-1.1,0-2.1,0.2-2.9,0.6c-0.9,0.4-1.6,1-2.3,1.7c-0.6,0.7-1.1,1.5-1.5,2.4
		c0,0.1-0.1,0.2-0.1,0.3V0h-5.1v8.9h-5.2l-3.5,7.4l-3.4-7.4h-4.8h-1h-4.1v8.2c0,1.8-0.9,2.7-2.6,2.7c-1.7,0-2.6-0.9-2.6-2.7V8.9
		h-5.1v9.1c0,2,0.6,3.4,1.9,4.4c1.3,1,3.2,1.5,5.8,1.5c2.6,0,4.5-0.5,5.8-1.5c1.3-1,1.9-2.4,1.9-4.4v-7.2L44,23.4h3.4l7-13.5v13.5
		h5.1v-4.6c0,0.1,0.1,0.2,0.1,0.4c0.4,0.9,0.9,1.8,1.5,2.5c0.7,0.7,1.4,1.2,2.3,1.6c0.9,0.4,1.9,0.6,2.9,0.6c1.9,0,3.3-0.7,4.4-2.1
		v1.6H76V8.9h-5.1V10.4z M70.7,17.5c-0.2,0.4-0.4,0.7-0.7,1c-0.3,0.3-0.6,0.5-1,0.7c-0.4,0.2-0.8,0.3-1.3,0.3
		c-0.5,0-0.9-0.1-1.3-0.3c-0.4-0.2-0.8-0.4-1-0.7c-0.3-0.3-0.5-0.7-0.7-1.1c-0.2-0.4-0.3-0.8-0.3-1.3c0-0.5,0.1-0.9,0.3-1.3
		c0.2-0.4,0.4-0.7,0.7-1c0.3-0.3,0.6-0.5,1-0.7c0.4-0.2,0.8-0.3,1.3-0.3c0.5,0,0.9,0.1,1.3,0.3c0.4,0.2,0.8,0.4,1,0.7
		c0.3,0.3,0.5,0.7,0.7,1.1c0.2,0.4,0.3,0.8,0.3,1.3S70.9,17.1,70.7,17.5z"/>
	<path class="st0" d="M108.1,12.7c-0.3-0.3-0.6-0.5-0.9-0.6c-0.4-0.2-0.8-0.2-1.2-0.2s-0.8,0.1-1.2,0.2c-0.4,0.2-0.7,0.4-0.9,0.6
		c-0.3,0.3-0.5,0.6-0.6,0.9c-0.2,0.4-0.2,0.7-0.2,1.1c0,0.4,0.1,0.8,0.2,1.2c0.2,0.4,0.4,0.7,0.6,1c0.3,0.3,0.6,0.5,0.9,0.6
		c0.4,0.2,0.8,0.2,1.2,0.2s0.8-0.1,1.2-0.2c0.4-0.2,0.7-0.4,0.9-0.6c0.3-0.3,0.5-0.6,0.6-1c0.2-0.4,0.2-0.8,0.2-1.2
		c0-0.4-0.1-0.8-0.2-1.2C108.6,13.3,108.4,13,108.1,12.7z"/>
	<path class="st0" d="M90.9,7.9c-0.5-0.5-1-0.9-1.7-1.1c-0.7-0.3-1.4-0.4-2.3-0.4h-1.1v10.8h1.1c0.9,0,1.6-0.1,2.3-0.4
		c0.7-0.3,1.3-0.6,1.7-1.1c0.5-0.5,0.8-1,1.1-1.7c0.2-0.7,0.4-1.4,0.4-2.2c0-0.8-0.1-1.5-0.4-2.1C91.7,9,91.3,8.4,90.9,7.9z"/>
	<path class="st0" d="M78.4,0v23.4h49V0H78.4z M96.8,15.4c-0.5,1.2-1.2,2.2-2,3.1c-0.9,0.9-1.9,1.6-3,2.1c-1.1,0.5-2.4,0.8-3.7,0.8
		h-7.4V2.1h7.4c1.3,0,2.5,0.3,3.7,0.8c1.1,0.5,2.2,1.2,3,2.1c0.9,0.9,1.5,1.9,2,3.1c0.5,1.2,0.7,2.4,0.7,3.7
		C97.6,13,97.3,14.2,96.8,15.4z M113.3,17.7c-0.4,0.9-0.9,1.6-1.6,2.2c-0.7,0.6-1.5,1.1-2.5,1.4c-1,0.3-2,0.5-3.2,0.5
		c-1.1,0-2.2-0.2-3.1-0.5c-1-0.3-1.8-0.8-2.5-1.5c-0.7-0.6-1.2-1.4-1.6-2.3c-0.4-0.9-0.6-1.9-0.6-2.9c0-1,0.2-1.9,0.6-2.7
		c0.4-0.8,0.9-1.6,1.6-2.2c0.7-0.6,1.5-1.1,2.5-1.5c1-0.4,2-0.5,3.2-0.5c1.1,0,2.2,0.2,3.1,0.5c1,0.3,1.8,0.8,2.5,1.5
		c0.7,0.6,1.3,1.4,1.6,2.2c0.4,0.9,0.6,1.8,0.6,2.8C113.9,15.9,113.7,16.9,113.3,17.7z M125.3,12.5c-0.8-0.5-1.6-0.8-2.4-0.8
		c-0.4,0-0.9,0.1-1.2,0.2s-0.7,0.4-1,0.7c-0.3,0.3-0.5,0.6-0.7,1c-0.2,0.4-0.2,0.8-0.2,1.3c0,0.5,0.1,0.9,0.2,1.3
		c0.2,0.4,0.4,0.7,0.7,1c0.3,0.3,0.6,0.5,1,0.7c0.4,0.2,0.8,0.2,1.3,0.2c0.9,0,1.7-0.3,2.4-0.9v3.9c-1.1,0.5-2.2,0.7-3.2,0.7
		c-1,0-1.9-0.2-2.7-0.5c-0.9-0.3-1.6-0.8-2.3-1.4c-0.7-0.6-1.2-1.3-1.6-2.2c-0.4-0.8-0.6-1.8-0.6-2.8c0-1,0.2-2,0.6-2.8
		c0.4-0.9,0.9-1.6,1.5-2.2c0.6-0.6,1.4-1.1,2.3-1.5c0.9-0.3,1.9-0.5,2.9-0.5c1.1,0,2.2,0.2,3.1,0.7V12.5z"/>
</g>
</svg>
